<?xml version="1.0" encoding="UTF-8"?>
<!DOCTYPE svg PUBLIC "-//W3C//DTD SVG 1.1//EN" "http://www.w3.org/Graphics/SVG/1.1/DTD/svg11.dtd">
<!-- Creator: CorelDRAW X7 -->
<svg xmlns="http://www.w3.org/2000/svg" xml:space="preserve" width="4961px" height="3508px" version="1.1" style="shape-rendering:geometricPrecision; text-rendering:geometricPrecision; image-rendering:optimizeQuality; fill-rule:evenodd; clip-rule:evenodd"
viewBox="0 0 4961 3508"
 xmlns:xlink="http://www.w3.org/1999/xlink">
 <defs>
  <style type="text/css">
   <![CDATA[
    .fil1 {fill:#52658C}
    .fil0 {fill:#BD0602}
   ]]>
  </style>
 </defs>
 <g id="Layer_x0020_1">
  <metadata id="CorelCorpID_0Corel-Layer"/>
  <path class="fil0" d="M3180 1148c-195,1 -389,3 -584,5l0 -912 1517 0c-4,555 -7,1109 -11,1663 -5,821 -722,1365 -1511,1396 0,-309 0,-619 0,-928 335,29 520,-137 589,-453 0,-257 0,-514 0,-771zm0 0z"/>
  <path class="fil1" d="M1785 2389c194,-2 389,-4 583,-6l0 912 -1516 0c4,-554 7,-1109 11,-1663 5,-821 722,-1365 1511,-1396 0,310 0,619 0,928 -336,-29 -520,137 -589,453 0,257 0,515 0,772zm0 0z"/>
 </g>
</svg>
